<svg width="300" height="220" viewBox="0 0 300 220" fill="none" xmlns="http://www.w3.org/2000/svg">
<path d="M223.885 143.312C224.062 143.32 224.237 143.273 224.386 143.178C224.536 143.082 224.653 142.943 224.721 142.779C224.789 142.614 224.806 142.433 224.768 142.259C224.731 142.085 224.641 141.926 224.511 141.805L224.451 141.569L224.475 141.512C224.653 141.088 224.952 140.727 225.333 140.474C225.714 140.22 226.161 140.086 226.618 140.088C227.075 140.09 227.521 140.227 227.901 140.483C228.28 140.74 228.576 141.103 228.751 141.528C229.45 143.224 230.341 144.922 230.56 146.715C230.656 147.508 230.616 148.311 230.44 149.09C232.082 145.482 232.935 141.562 232.941 137.593C232.941 136.597 232.886 135.602 232.776 134.613C232.685 133.801 232.559 132.996 232.398 132.196C231.517 127.857 229.627 123.79 226.882 120.329C225.554 119.599 224.479 118.477 223.804 117.113C223.559 116.623 223.386 116.1 223.29 115.56C223.44 115.58 223.592 115.592 223.742 115.602C223.789 115.605 223.838 115.607 223.885 115.609L223.902 115.61C224.067 115.618 224.23 115.577 224.373 115.493C224.515 115.409 224.63 115.286 224.704 115.138C224.779 114.989 224.809 114.823 224.791 114.658C224.773 114.493 224.709 114.336 224.605 114.208C224.54 114.127 224.475 114.047 224.411 113.967C224.312 113.843 224.212 113.722 224.113 113.599C224.102 113.587 224.091 113.574 224.081 113.561C223.968 113.42 223.855 113.282 223.742 113.141C223.949 112.819 224.226 112.549 224.553 112.352C225.686 111.684 227.248 112.147 228.066 113.178C228.45 113.716 228.71 114.333 228.83 114.984C228.949 115.635 228.924 116.305 228.757 116.945C228.476 118.042 228.013 119.082 227.386 120.022C227.447 120.101 227.511 120.178 227.572 120.257C228.695 121.711 229.674 123.271 230.494 124.917C230.295 123.073 230.533 121.208 231.189 119.475C231.854 117.86 233.1 116.5 234.198 115.104C234.488 114.729 234.882 114.449 235.331 114.299C235.779 114.15 236.261 114.138 236.717 114.264C237.172 114.39 237.58 114.65 237.889 115.009C238.198 115.369 238.394 115.813 238.452 116.285L238.459 116.347C238.295 116.439 238.136 116.537 237.98 116.641C237.784 116.773 237.632 116.962 237.544 117.182C237.456 117.403 237.436 117.645 237.487 117.877C237.538 118.108 237.658 118.319 237.83 118.482C238.002 118.644 238.219 118.75 238.452 118.787L238.476 118.79C238.418 119.382 238.315 119.968 238.169 120.544C237.745 122.152 236.995 123.654 235.967 124.956C234.94 126.259 233.656 127.333 232.196 128.113C232.1 128.162 232.007 128.212 231.911 128.259C232.735 130.61 233.252 133.059 233.449 135.545C233.56 137.012 233.554 138.485 233.429 139.95L233.437 139.898C233.751 138.269 234.615 136.799 235.881 135.736C237.762 134.18 240.42 133.607 242.45 132.356C242.665 132.217 242.916 132.143 243.172 132.142C243.429 132.141 243.68 132.215 243.896 132.353C244.113 132.491 244.285 132.689 244.394 132.923C244.502 133.157 244.542 133.417 244.508 133.673L244.5 133.727C244.197 133.851 243.903 133.994 243.618 134.155C243.455 134.248 243.295 134.346 243.139 134.45C242.943 134.582 242.791 134.77 242.703 134.991C242.615 135.211 242.595 135.453 242.646 135.685C242.697 135.917 242.817 136.128 242.989 136.29C243.161 136.453 243.378 136.559 243.611 136.595L243.635 136.599C243.652 136.601 243.667 136.604 243.684 136.606C243.167 137.849 242.442 138.993 241.539 139.987C240.425 141.192 239.077 142.154 237.58 142.815C236.083 143.477 234.467 143.823 232.832 143.834H232.83C232.386 145.775 231.743 147.665 230.911 149.473H224.057C224.032 149.396 224.01 149.317 223.988 149.241C224.622 149.281 225.259 149.243 225.885 149.127C225.376 148.499 224.868 147.865 224.359 147.237C224.348 147.225 224.337 147.213 224.327 147.2C224.069 146.878 223.809 146.559 223.551 146.238L223.551 146.237C223.537 145.252 223.649 144.269 223.885 143.312L223.885 143.312Z" fill="#F2F2F2"/>
<path d="M203.149 80.0028C203.149 83.8015 205.037 87.667 208.81 87.667C212.583 87.667 217.789 84.9158 216.618 79.0202C215.878 75.2953 213.754 73.1247 209.981 73.1247C209.084 73.1247 208.195 73.3026 207.366 73.6482C206.538 73.9939 205.784 74.5005 205.15 75.1392C204.516 75.7779 204.012 76.5362 203.669 77.3707C203.326 78.2052 203.149 79.0996 203.149 80.0028Z" fill="#2F2E41"/>
<path d="M218.977 134.276C218.771 134.047 218.618 133.774 218.528 133.479C218.438 133.183 218.414 132.871 218.457 132.565C218.5 132.259 218.609 131.966 218.776 131.707C218.944 131.448 219.166 131.229 219.426 131.065L217.775 123.737L221.405 125.112L222.417 131.86C222.661 132.319 222.729 132.853 222.608 133.359C222.488 133.865 222.187 134.309 221.763 134.607C221.339 134.904 220.821 135.035 220.307 134.974C219.794 134.913 219.32 134.665 218.977 134.276L218.977 134.276Z" fill="#A0616A"/>
<path d="M211.271 108.3L213.805 108.559C213.805 108.559 213.142 112.338 214.178 113.19C215.215 114.041 214.797 114.037 214.791 114.668C214.823 115.121 214.949 115.562 215.161 115.962C215.373 116.363 215.666 116.714 216.022 116.993C216.852 117.632 218.577 129.011 218.577 129.011L222.337 129.048C222.224 128.069 222.234 127.08 222.365 126.104C222.588 124.634 223.714 120.931 223.303 120.296C222.891 119.661 223.108 118.493 223.12 117.232C223.132 115.97 221.339 117.364 221.359 115.261C221.379 113.158 219.079 99.9627 219.306 98.0721C219.533 96.1815 217.252 94.477 217.252 94.477L215.163 94.4568L211.271 108.3Z" fill="#E6E6E6"/>
<path d="M184.37 90.5529C184.307 90.8389 184.307 91.1353 184.37 91.4213C184.433 91.7073 184.557 91.9759 184.734 92.2083C184.911 92.4406 185.137 92.6311 185.395 92.7662C185.653 92.9012 185.938 92.9777 186.228 92.9901L188.261 99.8101L190.618 96.9712L188.327 90.9301C188.315 90.4371 188.124 89.9654 187.79 89.6046C187.456 89.2438 187.003 89.0188 186.515 88.9723C186.027 88.9258 185.54 89.061 185.144 89.3523C184.749 89.6437 184.474 90.0709 184.37 90.5529Z" fill="#A0616A"/>
<path d="M205.831 92.7743C205.831 92.7743 200.917 90.9192 198.253 101.078L194.716 104.766L191.745 99.3603L192.138 98.078L189.841 92.8366L185.904 95.1116L186.873 98.71L186.709 100.489L187.65 101.595L189.19 107.314L190.154 109.182C190.154 109.182 191.369 111.574 193.49 111.968C194.055 112.075 194.634 112.091 195.204 112.017C196.561 111.803 197.818 111.171 198.803 110.208C201.426 107.854 203.906 105.343 206.23 102.691L205.831 92.7743Z" fill="#E6E6E6"/>
<path d="M212.423 109.785L212.771 111.453L213.066 117.605L201.191 115.986L200.279 108.862L201.539 106.777L212.423 109.785Z" fill="#A0616A"/>
<path d="M208.571 87.5676C211.675 87.5676 214.191 85.0343 214.191 81.9094C214.191 78.7845 211.675 76.2512 208.571 76.2512C205.467 76.2512 202.951 78.7845 202.951 81.9094C202.951 85.0343 205.467 87.5676 208.571 87.5676Z" fill="#A0616A"/>
<path d="M217.988 95.1405C217.53 94.0547 216.824 93.0933 215.927 92.3351C215.03 91.5769 213.967 91.0434 212.825 90.7783L212.804 90.774L211.691 89.266L207.177 89.7218L206.351 91.4258L204.21 92.708H204.206L204.202 92.7123L203.081 93.3853L199.361 97.7688L199.357 97.7731C198.811 98.1401 198.346 98.6161 197.99 99.1715C197.634 99.7269 197.395 100.35 197.288 101.002C197.232 101.378 197.213 101.76 197.233 102.14C197.356 104.47 198.803 106.544 199.002 106.821L199.488 109.577L199.586 110.144L200.461 110.272L212.8 112.048L213.143 112.099L213.244 112.112L213.6 111.188V111.179L217.04 102.118L218.584 98.0756C218.588 97.0663 218.385 96.067 217.988 95.1405Z" fill="#E6E6E6"/>
<path d="M214.453 83.3927C214.402 83.3846 214.351 83.3738 214.3 83.3657C213.423 83.2092 212.547 83.0553 211.673 82.8961L211.592 80.9015L210.533 82.6882C208.118 83.4953 205.858 83.0391 203.732 82.0324C203.03 81.6972 202.35 81.3196 201.694 80.9015C201.237 78.0919 202.391 75.8778 205.354 75.5951C205.446 75.5864 205.512 75.5088 205.592 75.4683C205.593 75.4683 205.593 75.4682 205.593 75.4681C205.594 75.4679 205.594 75.4677 205.594 75.4675C205.594 75.4672 205.595 75.4669 205.595 75.4666C205.595 75.4663 205.595 75.4659 205.595 75.4656C205.732 75.4008 205.871 75.3387 206.01 75.282C207.102 74.8526 208.292 74.7439 209.442 74.9684C210.593 75.193 211.656 75.7416 212.509 76.5506C213.374 77.4371 214.006 78.5276 214.345 79.7227C214.685 80.9179 214.722 82.1795 214.453 83.3927Z" fill="#2F2E41"/>
<path d="M219.989 129.024C219.74 127.353 219.332 125.709 218.77 124.117V124.112C218.3 122.766 217.714 121.463 217.019 120.219C217.018 120.219 217.017 120.219 217.017 120.219C217.016 120.218 217.016 120.218 217.016 120.218C217.015 120.217 217.015 120.217 217.015 120.216C217.014 120.216 217.014 120.215 217.014 120.215C216.013 118.339 214.708 116.646 213.151 115.205L212.986 115.03H212.944L201.028 114.736H200.906L200.77 114.732C200.77 114.732 200.72 114.881 200.622 115.162C200.619 115.18 200.613 115.197 200.605 115.213C200.571 115.324 200.529 115.452 200.478 115.593C200.449 115.686 200.415 115.784 200.381 115.891C200.343 116.006 200.301 116.125 200.258 116.253C199.928 117.245 199.446 118.685 198.854 120.47C198.765 120.743 198.672 121.024 198.574 121.318C196.315 128.164 192.68 139.35 189.507 149.953H200.762C201.854 146.775 203.013 142.243 203.013 142.243C203.466 141.702 203.44 140.232 203.44 140.232L206.978 136.492L209.525 149.953H220.213L220.294 134.971V134.843C220.377 132.898 220.275 130.95 219.989 129.024Z" fill="#CCCCCC"/>
<path d="M212.299 75.325V75.3298C212.299 75.626 212.336 75.921 212.411 76.2074C212.423 76.2576 212.437 76.3102 212.454 76.3604V76.3628C212.613 76.8743 212.888 77.3417 213.257 77.7284C213.626 78.115 214.078 78.4104 214.579 78.5914C214.653 78.6201 214.729 78.644 214.805 78.6655C214.965 78.7123 215.129 78.7459 215.294 78.766C215.443 78.7872 215.593 78.7976 215.743 78.7971C215.861 78.7976 215.978 78.792 216.095 78.7803C216.368 78.7525 216.637 78.6906 216.895 78.5962C216.936 78.5844 216.975 78.57 217.014 78.5532C217.033 78.5462 217.052 78.5383 217.071 78.5293C217.502 78.3477 217.892 78.0798 218.217 77.742C218.541 77.4041 218.795 77.0033 218.961 76.5639C219.128 76.1245 219.203 75.6556 219.184 75.1857C219.165 74.7159 219.051 74.2548 218.85 73.8306L218.848 73.8282C218.679 73.4722 218.45 73.1486 218.171 72.8717C217.548 72.2476 217.274 70.6835 216.329 70.6835C216.284 70.6827 216.238 70.6843 216.193 70.6883C215.559 70.7098 214.387 72.0874 213.888 72.4126C213.518 72.6482 213.197 72.9544 212.943 73.3141C212.678 73.684 212.489 74.1035 212.387 74.5479C212.329 74.8028 212.299 75.0635 212.299 75.325Z" fill="#2F2E41"/>
<path d="M216.507 74.1177C217.042 74.7446 217.879 74.9883 218.635 75.3145C219.968 75.9033 221.138 76.8107 222.045 77.9579C222.951 79.1051 223.565 80.4575 223.835 81.8979C224.044 83.0711 224.016 84.2856 224.346 85.4293C224.674 86.573 225.486 87.6952 226.652 87.8936C227.44 88.0292 228.231 87.7227 228.972 87.42C229.38 87.255 229.788 87.0892 230.196 86.9228C229.771 85.8479 229.346 84.7729 228.922 83.698C229.604 84.7124 230.396 85.6465 231.286 86.4826C232.748 85.8891 234.211 85.2957 235.676 84.7022C232.072 84.7159 232.687 81.1943 231.881 77.6609C231.438 75.7193 227.665 74.4046 226.925 72.5573C226.525 71.5554 225.849 70.6897 224.975 70.0628C224.102 69.4358 223.069 69.0738 221.998 69.0197C220.927 68.9655 219.862 69.2214 218.931 69.7571C218 70.2928 217.241 71.0859 216.743 72.0425C216.004 72.3392 215.982 73.4987 216.507 74.1177Z" fill="#2F2E41"/>
<path d="M201.203 115.597C200.373 115.815 199.609 116.231 198.974 116.81C198.339 117.389 197.852 118.114 197.555 118.923C197.45 119.153 197.397 119.403 197.399 119.655C197.402 119.907 197.46 120.156 197.57 120.383C197.655 120.542 197.793 120.664 197.96 120.728C198.127 120.792 198.312 120.793 198.479 120.73C198.827 120.541 199.105 120.244 199.27 119.882C199.512 119.418 199.721 118.937 199.894 118.442C200.176 117.696 200.779 116.45 199.918 115.866C199.194 115.376 198.235 115.566 197.42 115.533C196.54 115.496 195.561 115.157 195.248 114.238C194.944 113.344 195.657 112.504 196.426 112.164C196.888 111.971 197.391 111.895 197.889 111.943C198.387 111.991 198.866 112.161 199.284 112.438C200.11 113.014 200.699 113.873 200.943 114.854C200.961 114.929 200.949 115.007 200.91 115.073C200.872 115.139 200.809 115.187 200.736 115.207C200.663 115.228 200.584 115.218 200.518 115.182C200.451 115.145 200.401 115.084 200.378 115.011C200.271 114.56 200.077 114.135 199.805 113.761C199.534 113.387 199.191 113.071 198.798 112.831C198.41 112.606 197.968 112.496 197.521 112.513C197.074 112.531 196.641 112.675 196.273 112.93C196.081 113.05 195.933 113.231 195.852 113.443C195.771 113.656 195.761 113.89 195.824 114.109C195.922 114.305 196.064 114.477 196.239 114.609C196.414 114.74 196.617 114.83 196.832 114.869C197.761 115.095 198.733 114.802 199.659 115.101C200.075 115.208 200.435 115.469 200.669 115.831C200.904 116.193 200.994 116.631 200.923 117.057C200.827 117.587 200.671 118.104 200.458 118.599C200.277 119.107 200.066 119.604 199.826 120.087C199.458 120.787 198.795 121.544 197.92 121.339C196.923 121.105 196.686 119.933 196.9 119.071C197.184 118.093 197.716 117.207 198.443 116.498C199.17 115.789 200.067 115.283 201.047 115.029C201.121 115.011 201.199 115.023 201.264 115.062C201.329 115.101 201.377 115.164 201.397 115.237C201.418 115.311 201.409 115.39 201.372 115.457C201.336 115.524 201.275 115.574 201.203 115.597L201.203 115.597Z" fill="#CCCCCC"/>
<path d="M245.225 150.379H175.831C175.046 150.378 174.293 150.064 173.738 149.505C173.182 148.946 172.87 148.188 172.869 147.397V52.4004C172.87 51.6098 173.182 50.8518 173.738 50.2928C174.293 49.7338 175.046 49.4193 175.831 49.4184H245.225C246.01 49.4193 246.763 49.7337 247.318 50.2928C247.873 50.8518 248.186 51.6098 248.186 52.4004V147.397C248.186 148.188 247.873 148.946 247.318 149.505C246.763 150.064 246.01 150.378 245.225 150.379ZM175.831 50.2704C175.27 50.2711 174.732 50.4957 174.336 50.895C173.939 51.2943 173.716 51.8357 173.715 52.4004V147.397C173.716 147.962 173.939 148.503 174.336 148.903C174.732 149.302 175.27 149.527 175.831 149.527H245.225C245.785 149.527 246.323 149.302 246.72 148.903C247.116 148.503 247.34 147.962 247.34 147.397V52.4004C247.34 51.8357 247.116 51.2943 246.72 50.895C246.323 50.4957 245.785 50.2711 245.225 50.2704H175.831Z" fill="#3F3D56"/>
<path d="M256.252 14.6901H59.3725C59.1725 14.6858 58.9822 14.6029 58.8424 14.459C58.7025 14.3151 58.6241 14.1218 58.6241 13.9205C58.6241 13.7192 58.7025 13.5259 58.8424 13.382C58.9822 13.2382 59.1725 13.1552 59.3725 13.1509H256.252C256.452 13.1552 256.643 13.2382 256.783 13.382C256.922 13.5259 257.001 13.7192 257.001 13.9205C257.001 14.1218 256.922 14.3151 256.783 14.459C256.643 14.6029 256.452 14.6858 256.252 14.6901Z" fill="#CACACA"/>
<path d="M72.4575 9.22148C74.9317 9.22148 76.9374 7.15718 76.9374 4.61074C76.9374 2.0643 74.9317 0 72.4575 0C69.9833 0 67.9776 2.0643 67.9776 4.61074C67.9776 7.15718 69.9833 9.22148 72.4575 9.22148Z" fill="#3F3D56"/>
<path d="M87.9335 9.22148C90.4077 9.22148 92.4134 7.15718 92.4134 4.61074C92.4134 2.0643 90.4077 0 87.9335 0C85.4593 0 83.4536 2.0643 83.4536 4.61074C83.4536 7.15718 85.4593 9.22148 87.9335 9.22148Z" fill="#3F3D56"/>
<path d="M103.41 9.22148C105.884 9.22148 107.89 7.15718 107.89 4.61074C107.89 2.0643 105.884 0 103.41 0C100.935 0 98.9297 2.0643 98.9297 4.61074C98.9297 7.15718 100.935 9.22148 103.41 9.22148Z" fill="#3F3D56"/>
<path d="M246.935 1.14282H235.941C235.723 1.14716 235.516 1.23737 235.363 1.39405C235.211 1.55074 235.125 1.76142 235.125 1.98085C235.125 2.20028 235.211 2.41097 235.363 2.56765C235.516 2.72434 235.723 2.81454 235.941 2.81888H246.935C247.152 2.81454 247.36 2.72434 247.513 2.56765C247.665 2.41097 247.751 2.20028 247.751 1.98085C247.751 1.76142 247.665 1.55074 247.513 1.39405C247.36 1.23737 247.152 1.14716 246.935 1.14282Z" fill="#3F3D56"/>
<path d="M246.935 4.28851H235.941C235.723 4.29285 235.516 4.38306 235.363 4.53974C235.211 4.69643 235.125 4.90711 235.125 5.12654C235.125 5.34597 235.211 5.55666 235.363 5.71334C235.516 5.87003 235.723 5.96023 235.941 5.96457H246.935C247.152 5.96023 247.36 5.87003 247.513 5.71334C247.665 5.55666 247.751 5.34597 247.751 5.12654C247.751 4.90711 247.665 4.69643 247.513 4.53974C247.36 4.38306 247.152 4.29285 246.935 4.28851Z" fill="#3F3D56"/>
<path d="M246.935 7.43011H235.941C235.723 7.43448 235.516 7.52469 235.363 7.68138C235.211 7.83806 235.125 8.04873 235.125 8.26814C235.125 8.48756 235.211 8.69822 235.363 8.85491C235.516 9.01159 235.723 9.1018 235.941 9.10617H246.935C247.152 9.1018 247.36 9.01159 247.513 8.85491C247.665 8.69822 247.751 8.48756 247.751 8.26814C247.751 8.04873 247.665 7.83806 247.513 7.68138C247.36 7.52469 247.152 7.43448 246.935 7.43011Z" fill="#3F3D56"/>
<path d="M294.499 106.076H272.073C270.614 106.076 269.215 105.492 268.184 104.454C267.152 103.415 266.573 102.007 266.573 100.538C266.573 99.0691 267.152 97.6605 268.184 96.6219C269.215 95.5833 270.614 94.9999 272.073 94.9999H294.499C295.958 94.9999 297.357 95.5833 298.389 96.6219C299.42 97.6605 300 99.0691 300 100.538C300 102.007 299.42 103.415 298.389 104.454C297.357 105.492 295.958 106.076 294.499 106.076Z" fill="#B4FFD8"/>
<path d="M133.701 129.254C133.524 129.262 133.349 129.215 133.199 129.12C133.05 129.025 132.933 128.885 132.865 128.721C132.796 128.557 132.78 128.375 132.818 128.201C132.855 128.027 132.945 127.868 133.075 127.747L133.134 127.511L133.111 127.454C132.933 127.03 132.634 126.669 132.253 126.416C131.872 126.163 131.424 126.028 130.968 126.03C130.511 126.032 130.065 126.169 129.685 126.426C129.306 126.682 129.01 127.045 128.835 127.47C128.136 129.166 127.245 130.864 127.026 132.657C126.929 133.45 126.97 134.253 127.146 135.032C125.504 131.424 124.651 127.504 124.645 123.535C124.645 122.54 124.7 121.545 124.81 120.555C124.901 119.744 125.027 118.938 125.188 118.138C126.069 113.799 127.959 109.732 130.704 106.271C132.032 105.541 133.107 104.419 133.782 103.055C134.027 102.565 134.2 102.042 134.295 101.502C134.146 101.522 133.993 101.534 133.843 101.544C133.797 101.547 133.748 101.549 133.701 101.552L133.683 101.552C133.519 101.56 133.355 101.519 133.213 101.435C133.071 101.352 132.956 101.228 132.881 101.08C132.807 100.932 132.777 100.765 132.795 100.6C132.812 100.435 132.877 100.279 132.981 100.15C133.046 100.069 133.11 99.9893 133.175 99.9092C133.273 99.7856 133.374 99.6644 133.472 99.5407C133.484 99.529 133.494 99.5166 133.504 99.5036C133.617 99.3626 133.73 99.2241 133.843 99.0831C133.637 98.7608 133.36 98.4907 133.033 98.2941C131.9 97.6263 130.338 98.0888 129.519 99.1202C129.136 99.6583 128.876 100.275 128.756 100.926C128.637 101.577 128.662 102.247 128.829 102.887C129.109 103.984 129.573 105.024 130.2 105.964C130.139 106.043 130.075 106.12 130.013 106.199C128.891 107.653 127.912 109.213 127.092 110.859C127.291 109.015 127.053 107.15 126.397 105.418C125.732 103.803 124.486 102.442 123.388 101.046C123.098 100.671 122.703 100.391 122.255 100.242C121.807 100.092 121.325 100.08 120.869 100.206C120.414 100.332 120.006 100.592 119.697 100.952C119.388 101.311 119.192 101.755 119.134 102.227L119.127 102.289C119.29 102.381 119.45 102.48 119.606 102.584C119.802 102.715 119.954 102.904 120.042 103.124C120.13 103.345 120.15 103.587 120.099 103.819C120.048 104.051 119.928 104.261 119.756 104.424C119.584 104.586 119.367 104.693 119.134 104.729L119.11 104.732C119.168 105.324 119.271 105.91 119.417 106.486C119.841 108.094 120.591 109.596 121.618 110.898C122.646 112.201 123.93 113.275 125.39 114.055C125.485 114.104 125.579 114.154 125.675 114.201C124.85 116.552 124.333 119.002 124.137 121.487C124.025 122.954 124.032 124.427 124.156 125.893L124.149 125.841C123.834 124.211 122.971 122.741 121.704 121.678C119.823 120.122 117.166 119.549 115.136 118.299C114.92 118.159 114.67 118.085 114.413 118.084C114.157 118.083 113.906 118.157 113.689 118.295C113.473 118.433 113.301 118.631 113.192 118.865C113.084 119.099 113.044 119.359 113.078 119.615L113.086 119.669C113.389 119.793 113.683 119.936 113.968 120.097C114.131 120.19 114.291 120.288 114.447 120.392C114.643 120.524 114.795 120.713 114.883 120.933C114.971 121.153 114.99 121.395 114.939 121.627C114.888 121.859 114.769 122.07 114.597 122.233C114.425 122.395 114.208 122.501 113.975 122.537L113.951 122.541C113.934 122.544 113.919 122.546 113.902 122.548C114.419 123.791 115.144 124.935 116.046 125.93C117.161 127.134 118.508 128.096 120.006 128.757C121.503 129.419 123.118 129.765 124.753 129.776H124.756C125.2 131.717 125.843 133.607 126.675 135.415H133.529C133.554 135.339 133.576 135.259 133.598 135.183C132.963 135.223 132.326 135.185 131.701 135.069C132.21 134.441 132.718 133.807 133.227 133.179C133.238 133.167 133.249 133.155 133.259 133.142C133.517 132.821 133.777 132.502 134.035 132.18L134.035 132.18C134.049 131.194 133.937 130.211 133.701 129.254L133.701 129.254Z" fill="#F2F2F2"/>
<g opacity="0.38">
<path opacity="0.38" d="M120.686 119.228C120.405 118.997 120.179 118.707 120.022 118.379C119.865 118.05 119.782 117.69 119.778 117.326C119.774 116.961 119.849 116.6 119.999 116.268C120.148 115.936 120.368 115.64 120.643 115.403L115.042 100.66L119.519 101.614L124.272 115.796C124.637 116.288 124.81 116.897 124.759 117.509C124.707 118.121 124.435 118.692 123.993 119.116C123.551 119.539 122.97 119.784 122.361 119.805C121.751 119.825 121.155 119.62 120.686 119.228Z" fill="#FFB8B8"/>
<path opacity="0.38" d="M122.99 103.081L117.964 82.0198L115.801 75.894C115.799 75.8917 115.798 75.8887 115.797 75.8855C115.623 75.3901 115.352 74.9346 115.002 74.5455C114.651 74.1564 114.226 73.8415 113.753 73.6192C113.28 73.3911 112.767 73.2608 112.243 73.2359C111.719 73.211 111.195 73.2921 110.703 73.4743C110.618 73.504 110.534 73.5381 110.453 73.5766C110.279 73.6564 110.111 73.7475 109.949 73.8492C109.488 74.1422 109.091 74.5273 108.783 74.9809C108.475 75.4344 108.263 75.9467 108.16 76.4861L107.779 78.4968L107.618 79.3531L113.555 100.244V100.252L115.619 107.528L116.576 110.885V110.889L117.684 114.796L117.71 114.877L120.371 114.698H120.375L120.777 114.668L123.824 114.464L124.264 114.434L122.99 103.081Z" fill="#2F2E41"/>
<path opacity="0.38" d="M102.582 67.9171L113.779 90.7141L120.862 114.955C105.94 117.884 87.2151 124.151 85.8672 115.163C86.6978 90.1036 89.3142 82.1103 94.7153 71.2464L102.582 67.9171Z" fill="#2F2E41"/>
<path opacity="0.38" d="M117.553 135.469H108.358L104.631 122.788L102.007 135.308C101.999 135.363 101.995 135.414 101.986 135.469H92.1864C92.5037 131.55 93.0834 124.734 93.3585 123.767C93.7478 122.396 93.3585 122.396 92.5799 121.612C92.4064 121.437 92.3472 120.739 92.3641 119.763C92.4107 116.402 93.3204 109.744 93.3204 109.744L94.3994 107.733L94.7717 107.034L113.99 106.353L114.155 106.348L114.511 107.908L114.947 109.829L115.713 113.198L116.419 115.886L116.457 116.023V116.819C116.337 117.097 116.282 117.399 116.296 117.701C116.296 117.974 116.906 126.468 117.553 135.469Z" fill="#2F2E41"/>
<path opacity="0.38" d="M101.27 71.2978L102.59 68.1195L106.674 68.1917L110.932 74.2561L115.402 93.18C115.402 93.18 117.007 107.004 115.402 107.734C113.796 108.463 94.3572 108.075 94.3572 108.075C95.2573 100.61 95.9281 93.0152 96.635 88.4784C98.9715 73.4845 100.074 76.6399 101.27 71.2978Z" fill="#B4FFD8"/>
<path opacity="0.38" d="M106.674 68.1917C106.674 68.1917 115.471 73.3114 115.815 75.9838C116.159 78.6563 117.311 111.366 117.311 111.366L114.2 109.342L113.35 97.4205C113.943 86.8273 112.496 78.9315 109.553 73.0126L106.674 68.1917Z" fill="#2F2E41"/>
<path opacity="0.38" d="M104.597 66.7026C107.908 66.7026 110.593 64.0002 110.593 60.6665C110.593 57.3329 107.908 54.6304 104.597 54.6304C101.286 54.6304 98.6015 57.3329 98.6015 60.6665C98.6015 64.0002 101.286 66.7026 104.597 66.7026Z" fill="#FFB8B8"/>
<path opacity="0.38" d="M97.2097 60.3081C97.4774 61.5311 97.9603 62.6959 98.6357 63.7476C98.8149 64.1062 99.0828 64.4124 99.4135 64.6367C99.5809 64.7449 99.7807 64.7906 99.9781 64.7657C100.175 64.7409 100.358 64.6471 100.494 64.5008L100.64 64.3812C100.354 64.2037 100.098 63.9806 99.8834 63.7204C99.7771 63.5899 99.7032 63.4357 99.668 63.2707C99.6328 63.1056 99.6372 62.9345 99.6808 62.7715C99.7326 62.6108 99.8443 62.4765 99.9923 62.3969C100.14 62.3173 100.313 62.2986 100.475 62.3446C100.826 62.4833 101.039 62.9945 101.407 62.9156C101.704 62.8504 101.766 62.4561 101.766 62.1461C101.755 60.5256 102.533 58.2226 103.135 58.2933C103.744 58.3268 104.353 58.2447 104.931 58.0513C105.51 57.8576 106.121 57.7791 106.73 57.8202C106.773 57.8256 106.816 57.8338 106.862 57.8419C106.96 57.534 107.094 57.2392 107.262 56.9637C107.243 57.2962 107.259 57.6298 107.31 57.9588C107.795 58.1599 108.295 58.319 108.807 58.4347C109.363 58.5135 110.586 60.1885 110.643 60.0172C110.741 59.7093 110.875 59.4144 111.043 59.1389C111.024 59.4714 111.04 59.805 111.091 60.1341C111.094 60.1477 111.094 60.1586 111.097 60.1721C111.367 59.8105 111.532 59.37 111.44 59.7072C112.345 57.6462 111.993 56.1698 110.57 54.4323C110.293 54.0587 109.926 53.7621 109.503 53.5704C109.292 53.4768 109.06 53.4397 108.83 53.4626C108.6 53.4854 108.38 53.5675 108.191 53.7009C107.61 53.1651 106.898 52.7953 106.128 52.6298C105.358 52.4644 104.557 52.5094 103.81 52.7601C102.328 53.2794 101.185 53.584 100.958 55.1501C100.34 55.082 99.7145 55.1914 99.1549 55.4656C98.5953 55.7398 98.1241 56.1677 97.7957 56.6999C97.1567 57.7857 96.9474 59.074 97.2097 60.3081Z" fill="#2F2E41"/>
<path opacity="0.38" d="M80.4092 117.739C80.2745 117.4 80.2151 117.036 80.2352 116.672C80.2554 116.308 80.3546 115.953 80.5259 115.631C80.6972 115.31 80.9364 115.03 81.2267 114.812C81.5169 114.594 81.8512 114.442 82.2059 114.368L84.3676 98.734L87.8307 101.745L85.1953 116.475C85.2795 117.083 85.1391 117.701 84.8008 118.212C84.4626 118.723 83.9499 119.091 83.3599 119.247C82.77 119.403 82.1438 119.336 81.5999 119.058C81.0561 118.78 80.6324 118.31 80.4092 117.739H80.4092Z" fill="#FFB8B8"/>
<path opacity="0.38" d="M99.4896 76.0048L99.3246 74.4882C99.2482 73.7997 98.996 73.1427 98.5926 72.5814C98.1892 72.02 97.6484 71.5733 97.0228 71.2847C96.5395 71.059 96.0152 70.9357 95.4826 70.9226H95.4783C94.6944 70.9042 93.9225 71.1192 93.2594 71.5405C92.5963 71.9618 92.0714 72.5708 91.7506 73.2912L89.1102 79.2338L82.4459 99.8307L80.2922 111.034L82.6194 111.379L85.9918 111.878L86.0171 111.882L86.7915 111.997L97.6109 82.842L97.6152 82.8335L99.6377 77.385L99.4896 76.0048Z" fill="#2F2E41"/>
</g>
<path d="M139.865 135.895H70.4713C69.686 135.895 68.9332 135.58 68.3779 135.021C67.8227 134.462 67.5103 133.704 67.5094 132.913V37.9165C67.5103 37.1259 67.8226 36.368 68.3779 35.8089C68.9332 35.2499 69.686 34.9354 70.4713 34.9345H139.865C140.65 34.9354 141.403 35.2499 141.958 35.8089C142.514 36.368 142.826 37.1259 142.827 37.9165V132.913C142.826 133.704 142.513 134.462 141.958 135.021C141.403 135.58 140.65 135.895 139.865 135.895ZM70.4713 35.7865C69.9104 35.7872 69.3727 36.0118 68.9761 36.4111C68.5794 36.8104 68.3563 37.3518 68.3557 37.9165V132.913C68.3563 133.478 68.5794 134.02 68.9761 134.419C69.3727 134.818 69.9104 135.043 70.4713 135.043H139.865C140.426 135.043 140.963 134.818 141.36 134.419C141.757 134.02 141.98 133.478 141.98 132.913V37.9165C141.98 37.3518 141.757 36.8104 141.36 36.4111C140.963 36.0118 140.426 35.7872 139.865 35.7865H70.4713Z" fill="#E6E6E6"/>
<path d="M27.9267 106.076H5.5007C4.04183 106.076 2.6427 105.492 1.61112 104.454C0.579539 103.415 0 102.007 0 100.538C0 99.0691 0.579539 97.6605 1.61112 96.6219C2.6427 95.5833 4.04183 94.9999 5.5007 94.9999H27.9267C29.3855 94.9999 30.7847 95.5833 31.8162 96.6219C32.8478 97.6605 33.4274 99.0691 33.4274 100.538C33.4274 102.007 32.8478 103.415 31.8162 104.454C30.7847 105.492 29.3855 106.076 27.9267 106.076Z" fill="#E6E6E6"/>
<path d="M38.9281 127.802H16.5021C15.0432 127.802 13.6441 127.218 12.6125 126.18C11.5809 125.141 11.0014 123.732 11.0014 122.264C11.0014 120.795 11.5809 119.386 12.6125 118.348C13.6441 117.309 15.0432 116.726 16.5021 116.726H38.9281C40.3869 116.726 41.7861 117.309 42.8176 118.348C43.8492 119.386 44.4288 120.795 44.4288 122.264C44.4288 123.732 43.8492 125.141 42.8176 126.18C41.7861 127.218 40.3869 127.802 38.9281 127.802Z" fill="#E6E6E6"/>
<path d="M50.7901 123.739L50.7778 124.591L94.1147 125.221L94.1269 124.369L50.7901 123.739Z" fill="#E6E6E6"/>
<path d="M95.9389 126.745C95.5419 126.745 95.1528 126.633 94.816 126.422C94.4792 126.21 94.2081 125.908 94.0338 125.548C93.8326 125.133 93.7711 124.663 93.8587 124.209C93.9462 123.755 94.1781 123.342 94.5193 123.033C94.8605 122.723 95.2924 122.534 95.7499 122.493C96.2073 122.453 96.6655 122.563 97.0551 122.808C97.4447 123.053 97.7447 123.418 97.9097 123.85C98.0747 124.281 98.0958 124.755 97.9697 125.2C97.8437 125.644 97.5774 126.035 97.211 126.314C96.8447 126.593 96.3982 126.744 95.9389 126.745ZM95.9346 123.336C95.7194 123.337 95.5077 123.392 95.3195 123.497C95.1314 123.602 94.9728 123.754 94.8589 123.938C94.7449 124.122 94.6792 124.332 94.6679 124.548C94.6567 124.764 94.7002 124.98 94.7945 125.175C94.894 125.38 95.0461 125.554 95.2349 125.679C95.4238 125.805 95.6426 125.877 95.8686 125.889C96.0947 125.901 96.3197 125.851 96.5204 125.746C96.7211 125.641 96.8901 125.483 97.01 125.29C97.1298 125.097 97.1962 124.875 97.2021 124.647C97.208 124.419 97.1532 124.194 97.0435 123.994C96.9338 123.795 96.7731 123.629 96.5781 123.513C96.3831 123.398 96.1609 123.337 95.9346 123.336Z" fill="#E6E6E6"/>
<path d="M41.4812 101.161L41.4689 102.013L84.8058 102.643L84.818 101.791L41.4812 101.161Z" fill="#E6E6E6"/>
<path d="M86.63 104.167C86.2331 104.167 85.844 104.055 85.5072 103.844C85.1703 103.632 84.8993 103.33 84.7249 102.971C84.5234 102.555 84.4617 102.085 84.5492 101.631C84.6367 101.176 84.8686 100.763 85.2099 100.454C85.5512 100.144 85.9833 99.9545 86.441 99.9138C86.8987 99.8732 87.3571 99.9836 87.7469 100.228C88.1368 100.473 88.4369 100.839 88.602 101.271C88.7671 101.702 88.7882 102.176 88.662 102.621C88.5359 103.066 88.2694 103.457 87.9029 103.736C87.5363 104.015 87.0895 104.166 86.63 104.167ZM85.4856 102.597C85.6144 102.863 85.8306 103.075 86.0975 103.199C86.3644 103.322 86.6654 103.348 86.9493 103.273C87.2332 103.197 87.4824 103.025 87.6544 102.786C87.8265 102.546 87.9107 102.254 87.8928 101.959C87.8749 101.664 87.7559 101.384 87.5562 101.168C87.3565 100.951 87.0883 100.811 86.7974 100.771C86.5065 100.731 86.2109 100.794 85.9609 100.949C85.7109 101.104 85.522 101.341 85.4263 101.621C85.3168 101.941 85.3381 102.293 85.4856 102.597Z" fill="#E6E6E6"/>
<path d="M44.8519 84.776H22.4259C20.9671 84.776 19.5679 84.1925 18.5364 83.154C17.5048 82.1154 16.9252 80.7068 16.9252 79.238C16.9252 77.7693 17.5048 76.3607 18.5364 75.3221C19.5679 74.2836 20.9671 73.7001 22.4259 73.7001H44.8519C46.3108 73.7001 47.7099 74.2836 48.7415 75.3221C49.7731 76.3607 50.3526 77.7693 50.3526 79.238C50.3526 80.7068 49.7731 82.1154 48.7415 83.154C47.7099 84.1925 46.3108 84.776 44.8519 84.776Z" fill="#E6E6E6"/>
<path d="M58.4064 79.8613L58.3942 80.7132L101.731 81.3435L101.743 80.4915L58.4064 79.8613Z" fill="#E6E6E6"/>
<path d="M103.555 82.8673C103.158 82.8677 102.769 82.7557 102.432 82.5442C102.096 82.3327 101.825 82.0302 101.65 81.6711C101.449 81.2554 101.387 80.785 101.475 80.3308C101.562 79.8767 101.794 79.4636 102.135 79.1539C102.476 78.8442 102.909 78.6547 103.366 78.6141C103.824 78.5734 104.282 78.6839 104.672 78.9287C105.062 79.1735 105.362 79.5393 105.527 79.971C105.692 80.4027 105.713 80.8767 105.587 81.3215C105.461 81.7663 105.195 82.1577 104.828 82.4366C104.462 82.7155 104.015 82.8667 103.555 82.8673ZM102.411 81.2975C102.54 81.5632 102.756 81.7757 103.023 81.8988C103.29 82.0219 103.591 82.0481 103.875 81.9728C104.159 81.8975 104.408 81.7255 104.58 81.486C104.752 81.2465 104.836 80.9544 104.818 80.6593C104.8 80.3643 104.681 80.0847 104.481 79.8681C104.282 79.6515 104.014 79.5113 103.723 79.4714C103.432 79.4315 103.136 79.4944 102.886 79.6493C102.636 79.8043 102.447 80.0417 102.352 80.3212C102.242 80.6417 102.263 80.9928 102.411 81.2975Z" fill="#E6E6E6"/>
<path d="M217.874 98.2573L217.862 99.1093L261.198 99.7395L261.211 98.8875L217.874 98.2573Z" fill="#3F3D56"/>
<path d="M216.055 100.994C215.534 100.996 215.031 100.804 214.642 100.456C214.253 100.107 214.005 99.627 213.945 99.1062C213.885 98.5855 214.017 98.0608 214.317 97.6321C214.617 97.2035 215.063 96.901 215.57 96.7823C216.077 96.6636 216.61 96.7371 217.067 96.9887C217.524 97.2403 217.873 97.6523 218.047 98.1463C218.221 98.6403 218.209 99.1816 218.012 99.667C217.815 100.152 217.448 100.548 216.98 100.778C216.692 100.92 216.376 100.994 216.055 100.994ZM216.052 97.5846C215.776 97.5846 215.508 97.6749 215.287 97.8421C215.067 98.0092 214.907 98.2439 214.831 98.5109C214.755 98.7778 214.767 99.0624 214.866 99.3217C214.965 99.581 215.145 99.8009 215.379 99.9481C215.612 100.095 215.888 100.162 216.162 100.138C216.437 100.114 216.697 100 216.902 99.8142C217.107 99.6284 217.246 99.3805 217.299 99.1079C217.352 98.8353 217.315 98.5529 217.194 98.3032V98.303C217.089 98.0877 216.927 97.9063 216.725 97.7793C216.523 97.6523 216.29 97.5848 216.052 97.5846Z" fill="#3F3D56"/>
<path d="M294.499 149.953H272.073C270.614 149.953 269.215 149.37 268.184 148.331C267.152 147.293 266.573 145.884 266.573 144.415C266.573 142.947 267.152 141.538 268.184 140.499C269.215 139.461 270.614 138.877 272.073 138.877H294.499C295.958 138.877 297.357 139.461 298.389 140.499C299.42 141.538 300 142.947 300 144.415C300 145.884 299.42 147.293 298.389 148.331C297.357 149.37 295.958 149.953 294.499 149.953Z" fill="#B4FFD8"/>
<path d="M217.874 142.135L217.862 142.987L261.198 143.617L261.211 142.765L217.874 142.135Z" fill="#3F3D56"/>
<path d="M216.055 144.872C215.677 144.872 215.306 144.771 214.98 144.578C214.654 144.385 214.386 144.108 214.203 143.775C214.019 143.443 213.927 143.067 213.937 142.687C213.947 142.307 214.057 141.936 214.258 141.613C214.458 141.29 214.74 141.028 215.075 140.852C215.41 140.676 215.786 140.594 216.163 140.614C216.54 140.634 216.905 140.755 217.22 140.965C217.536 141.174 217.789 141.466 217.955 141.807C218.112 142.132 218.184 142.492 218.165 142.852C218.146 143.213 218.037 143.563 217.847 143.869C217.657 144.175 217.393 144.428 217.079 144.603C216.766 144.779 216.413 144.871 216.055 144.872ZM216.052 141.462C215.776 141.462 215.508 141.552 215.287 141.72C215.067 141.887 214.907 142.121 214.831 142.388C214.755 142.655 214.767 142.94 214.866 143.199C214.964 143.458 215.144 143.678 215.378 143.826C215.612 143.973 215.887 144.039 216.162 144.015C216.437 143.991 216.696 143.878 216.902 143.692C217.107 143.506 217.246 143.258 217.299 142.986C217.352 142.713 217.315 142.431 217.194 142.181C217.089 141.966 216.927 141.784 216.725 141.657C216.523 141.53 216.29 141.462 216.052 141.462Z" fill="#3F3D56"/>
<path d="M160.354 149.902C160.635 149.674 160.864 149.388 161.025 149.063C161.185 148.739 161.274 148.382 161.284 148.019C161.294 147.657 161.226 147.296 161.085 146.962C160.943 146.628 160.731 146.33 160.463 146.087L164.493 134.273L161.522 132.347L156.837 146.414C156.464 146.898 156.28 147.503 156.321 148.114C156.361 148.725 156.623 149.3 157.057 149.73C157.49 150.16 158.065 150.415 158.673 150.447C159.281 150.478 159.879 150.284 160.354 149.902H160.354Z" fill="#FFB6B6"/>
<path d="M163.793 117.306C163.082 120.337 162.019 122.985 162.163 124.257C162.305 125.525 160.766 126.744 161.255 127.746C161.744 128.751 160.241 128.859 160.647 130.476C161.055 132.097 161.32 132.443 160.976 132.71C160.629 132.976 158.797 139.162 158.797 139.162L159.871 139.558L163.007 140.71L170.375 128.509L170.353 113.532L168.524 113.473C168.084 113.639 167.598 113.838 167.113 114.077C165.63 114.798 164.131 115.862 163.793 117.306Z" fill="#B4FFD8"/>
<path d="M190.927 212.336H194.759L196.582 197.456H190.926L190.927 212.336Z" fill="#FFB6B6"/>
<path d="M196.034 212.684V210.068L195.026 210.13L190.926 210.375L189.977 210.433L189.251 219.192L189.212 219.662H191.933L192.021 219.196L192.416 217.076L193.436 219.196L193.66 219.662H200.873C201.302 219.659 201.713 219.486 202.016 219.18C202.319 218.874 202.49 218.46 202.492 218.028C202.797 216.597 196.798 213.502 196.034 212.684Z" fill="#2F2E41"/>
<path d="M146.036 208.137L149.369 210.041L158.248 198.005L153.329 195.195L146.036 208.137Z" fill="#FFB6B6"/>
<path d="M150.309 210.975L151.588 208.702L150.688 208.255L146.999 206.432L146.144 206.008L141.943 212.201L140.955 213.655L142.072 214.294L143.319 215.009L145.01 213L144.822 215.866L150.714 219.235H150.717L151.096 219.45C151.47 219.663 151.913 219.717 152.327 219.602C152.741 219.486 153.093 219.21 153.305 218.834C154.27 217.738 150.571 212.071 150.309 210.975Z" fill="#2F2E41"/>
<path d="M171.911 139.295C166.777 142.721 161.693 175.632 163.027 175.094L150.925 197.802L157.111 202.013L179.478 165.981L186.913 181.921L189.983 206.387L197.685 205.833C195.684 178.27 190.687 149.2 186.546 137.956L171.911 139.295Z" fill="#2F2E41"/>
<path d="M168.013 141.739L167.957 141.951C173.385 144.991 188.243 141.469 188.243 141.469L185.849 133.701L189.082 116.442C189.077 115.751 188.932 115.068 188.654 114.435C188.377 113.803 187.973 113.235 187.468 112.766C186.964 112.297 186.368 111.938 185.72 111.71C185.071 111.483 184.383 111.392 183.699 111.443L179.798 108.534L174.244 108.727L170.53 112.858L168.311 113.656L166.586 114.275C166.238 114.591 165.857 114.955 165.493 115.357L168.22 131.699L169.38 136.585L168.013 141.739Z" fill="#B4FFD8"/>
<path d="M177.026 107.886C180.962 107.886 184.152 104.674 184.152 100.712C184.152 96.7507 180.962 93.539 177.026 93.539C173.091 93.539 169.901 96.7507 169.901 100.712C169.901 104.674 173.091 107.886 177.026 107.886Z" fill="#FFB6B6"/>
<path d="M167.658 98.2135C167.679 98.2216 167.698 98.2297 167.719 98.2378C167.759 98.2559 167.801 98.2712 167.844 98.2836C168.116 98.3841 168.399 98.4496 168.687 98.4787C168.81 98.492 168.933 98.4986 169.057 98.4984C169.215 98.4989 169.373 98.4886 169.53 98.4674C169.705 98.4458 169.878 98.4105 170.047 98.3616C170.127 98.3399 170.206 98.3142 170.284 98.2845C170.813 98.0953 171.291 97.7852 171.681 97.3785C172.071 96.9719 172.361 96.4797 172.53 95.9408V95.9381C172.548 95.8854 172.563 95.8318 172.576 95.7775C172.655 95.476 172.695 95.1655 172.695 94.8536V94.8482C172.697 94.0877 172.462 93.3459 172.022 92.7275C171.757 92.3491 171.451 92.2859 171.622 91.8532C172.171 90.4729 169.928 89.3446 168.604 89.9515C168.557 89.9469 168.509 89.945 168.461 89.9458C167.569 89.9435 167.239 91.2687 166.707 92.0148L166.723 92.0198C166.857 92.0672 166.974 92.1558 167.056 92.2732C167.138 92.3905 167.182 92.5308 167.181 92.6743C167.18 92.8179 167.134 92.9575 167.051 93.0738C166.967 93.19 166.849 93.277 166.714 93.3226C166.36 93.4387 166.003 93.5412 165.642 93.6301C164.451 95.0464 165.816 99.1898 167.658 98.2135Z" fill="#2F2E41"/>
<path d="M168.313 102.011C168.652 103.546 169.465 104.933 170.634 105.974C171.84 106.955 177.51 109.278 177.988 107.289C177.668 108.679 177.861 109.21 178.376 109.707C178.464 109.586 178.558 109.471 178.654 109.359C179.008 108.949 179.432 108.606 179.907 108.347C179.919 109.186 179.859 110.025 179.728 110.854C179.94 111.051 180.142 111.259 180.333 111.477C181.25 108.725 183.26 105.43 181.805 102.924C181.227 101.93 181.709 101.794 182.22 101.68C183.113 101.48 183.606 97.7907 183.818 96.8938C184.082 95.7693 184.186 94.4756 183.494 93.5523C182.802 92.629 181.051 92.5897 180.697 93.6898L179.96 92.6807C179.007 90.57 176.478 90.9922 174.192 91.2649C173.05 91.4391 171.967 91.8909 171.037 92.5813C170.108 93.2716 169.36 94.1797 168.857 95.2269C167.876 97.35 167.683 99.7571 168.313 102.011Z" fill="#2F2E41"/>
<path d="M171.918 92.3695C171.966 93.6423 171.642 94.9014 170.986 95.9903C170.329 97.0792 169.37 97.9498 168.226 98.494C167.761 98.7059 167.357 98.0125 167.825 97.7991C168.847 97.3244 169.706 96.5547 170.292 95.5876C170.879 94.6205 171.167 93.4997 171.12 92.3675C171.093 91.8506 171.891 91.8542 171.918 92.3695V92.3695Z" fill="#B4FFD8"/>
<path d="M204.099 96.3382C203.752 96.4353 203.43 96.6072 203.155 96.842C202.88 97.0768 202.659 97.3689 202.507 97.6981C202.355 98.0274 202.276 98.3859 202.276 98.7488C202.275 99.1118 202.353 99.4706 202.504 99.8003L194.17 109.054L196.146 112.004L205.964 100.94C206.496 100.644 206.902 100.161 207.105 99.5831C207.307 99.0053 207.292 98.3729 207.062 97.8056C206.832 97.2383 206.404 96.7756 205.858 96.5051C205.312 96.2347 204.686 96.1753 204.099 96.3382Z" fill="#FFB6B6"/>
<path d="M180.41 126.359C180.41 126.359 186.321 127.428 188.163 124.923C190.005 122.418 192.019 120.409 192.386 119.184C192.752 117.96 194.643 117.454 194.587 116.337C194.531 115.22 195.956 115.719 196.216 114.07C196.475 112.42 196.368 111.995 196.791 111.887C197.213 111.78 201.319 106.825 201.319 106.825L198.058 103.729L186.506 112.013L180.41 126.359Z" fill="#B4FFD8"/>
<path d="M135.955 216.538C133.665 216.263 131.465 215.477 129.515 214.237C127.565 212.997 125.915 211.334 124.686 209.37C123.086 206.759 122.261 203.658 121.463 200.659C121.231 199.787 120.991 198.885 120.737 198.015C120.449 197.064 120.451 196.049 120.742 195.099C121.033 194.15 121.599 193.31 122.368 192.687C123.112 192.059 124.026 191.67 124.991 191.57C125.956 191.47 126.929 191.663 127.785 192.124L127.971 192.224L128.298 199.628C128.783 198.636 129.847 196.395 130.69 194.158L130.761 193.97L130.922 194.088C132.617 195.314 134.151 196.749 135.49 198.361C137.853 201.253 139.562 204.629 140.498 208.253C141.435 211.877 141.576 215.664 140.912 219.348L140.871 219.568L135.955 216.538Z" fill="#F2F2F2"/>
<path d="M105.968 219.493C105.968 219.56 105.981 219.626 106.006 219.687C106.031 219.749 106.068 219.805 106.115 219.852C106.162 219.899 106.218 219.936 106.279 219.962C106.34 219.987 106.406 220 106.472 220H229.302C229.436 220 229.564 219.947 229.659 219.852C229.753 219.756 229.806 219.627 229.806 219.493C229.806 219.359 229.753 219.23 229.659 219.135C229.564 219.04 229.436 218.986 229.302 218.986H106.472C106.406 218.986 106.34 218.999 106.279 219.024C106.218 219.05 106.162 219.087 106.115 219.134C106.068 219.181 106.031 219.237 106.006 219.299C105.981 219.36 105.968 219.426 105.968 219.493Z" fill="#CCCCCC"/>
</svg>
