<svg width="300" height="220" viewBox="0 0 300 220" fill="none" xmlns="http://www.w3.org/2000/svg">
<g clip-path="url(#clip0_5_191)">
<path d="M147.918 219.07H136.394V128.84H145.766C146.22 128.84 146.656 129.023 146.978 129.348C147.3 129.674 147.481 130.116 147.484 130.578L147.918 219.07Z" fill="#CCCCCC"/>
<path d="M137.471 219.548H13.7148V155.289H137.471V219.548Z" fill="white"/>
<path d="M88.6926 219.309H13.9497V155.527H137.236V169.925C137.222 183.018 132.103 195.571 123.002 204.829C113.902 214.087 101.563 219.294 88.6926 219.309Z" fill="#F2F2F2"/>
<path d="M146.041 131.403C145.979 131.523 145.931 131.649 145.898 131.78L141.63 148.514L137.001 157.432H14.1847V155.211L21.177 148.514L29.334 132.642C29.6941 131.941 30.1669 131.306 30.733 130.765C32.0245 129.528 33.7311 128.84 35.5045 128.84H144.523C144.819 128.84 145.11 128.918 145.368 129.066C145.625 129.214 145.841 129.427 145.994 129.685C146.147 129.943 146.231 130.237 146.24 130.538C146.248 130.839 146.18 131.137 146.041 131.403Z" fill="#F2F2F2"/>
<path d="M137.471 219.548H13.7148V155.289H137.471V219.548ZM14.6543 218.592H136.532V156.244H14.6543V218.592Z" fill="#E6E6E6"/>
<path d="M143.91 139.963L141.63 148.514H21.1771L25.0693 141.397L143.91 139.963Z" fill="#CCCCCC"/>
<path d="M38.0065 188.961H18.2786V190.072H38.0065V188.961Z" fill="white"/>
<path d="M38.0065 192.849H18.2786V193.959H38.0065V192.849Z" fill="white"/>
<path d="M38.0065 196.736H18.2786V197.846H38.0065V196.736Z" fill="white"/>
<path d="M25.9204 176.59C29.8395 176.59 33.0165 173.358 33.0165 169.371C33.0165 165.384 29.8395 162.152 25.9204 162.152C22.0014 162.152 18.8243 165.384 18.8243 169.371C18.8243 173.358 22.0014 176.59 25.9204 176.59Z" fill="white"/>
<path d="M103.695 143.665H97.6682V96.4781H102.57C102.807 96.4781 103.035 96.5737 103.203 96.7441C103.371 96.9144 103.466 97.1456 103.468 97.3871L103.695 143.665Z" fill="#CCCCCC"/>
<path d="M98.2315 143.914H33.5127V110.31H98.2315V143.914Z" fill="white"/>
<path d="M72.7226 143.789H33.6355V110.434H98.1087V117.964C98.101 124.811 95.424 131.375 90.6648 136.217C85.9057 141.058 79.453 143.782 72.7226 143.789Z" fill="#F2F2F2"/>
<path d="M102.713 97.8185C102.681 97.8811 102.656 97.9473 102.638 98.0158L100.406 106.767L97.9857 111.431H33.7583V110.269L37.415 106.767L41.6807 98.4662C41.869 98.0998 42.1163 97.768 42.4123 97.4847C43.0877 96.8381 43.9802 96.4781 44.9076 96.4781H101.919C102.074 96.4781 102.226 96.5188 102.361 96.5963C102.496 96.6737 102.608 96.7853 102.688 96.9202C102.768 97.055 102.813 97.2086 102.817 97.366C102.821 97.5234 102.786 97.6793 102.713 97.8185Z" fill="#F2F2F2"/>
<path d="M98.2315 143.914H33.5127V110.31H98.2315V143.914ZM34.004 143.415H97.7402V110.809H34.004V143.415Z" fill="#E6E6E6"/>
<path d="M101.598 102.295L100.406 106.767H37.415L39.4504 103.045L101.598 102.295Z" fill="#CCCCCC"/>
<path d="M46.2161 127.919H35.8993V128.5H46.2161V127.919Z" fill="white"/>
<path d="M46.2161 129.952H35.8993V130.532H46.2161V129.952Z" fill="white"/>
<path d="M46.2161 131.984H35.8993V132.565H46.2161V131.984Z" fill="white"/>
<path d="M39.8956 121.449C41.9451 121.449 43.6065 119.759 43.6065 117.674C43.6065 115.589 41.9451 113.899 39.8956 113.899C37.8461 113.899 36.1847 115.589 36.1847 117.674C36.1847 119.759 37.8461 121.449 39.8956 121.449Z" fill="white"/>
<path d="M281.308 219.515L281.271 219.312C280.661 215.891 280.791 212.377 281.651 209.012C282.511 205.648 284.082 202.514 286.252 199.829C287.482 198.333 288.892 197.001 290.448 195.863L290.597 195.754L290.662 195.928C291.436 198.005 292.413 200.085 292.859 201.005L293.159 194.133L293.331 194.04C294.117 193.612 295.01 193.433 295.897 193.526C296.784 193.619 297.623 193.98 298.306 194.563C299.013 195.14 299.533 195.92 299.801 196.802C300.068 197.683 300.07 198.626 299.805 199.508C299.572 200.316 299.351 201.153 299.138 201.963C298.405 204.747 297.647 207.625 296.178 210.049C295.048 211.872 293.532 213.416 291.741 214.567C289.95 215.718 287.928 216.448 285.825 216.703L281.308 219.515Z" fill="#F2F2F2"/>
<path d="M300 219.431C300 219.506 299.986 219.58 299.958 219.649C299.93 219.718 299.889 219.781 299.837 219.834C299.785 219.887 299.723 219.929 299.655 219.957C299.587 219.986 299.514 220 299.441 220H0.558975C0.410726 220 0.268547 219.94 0.163719 219.833C0.058891 219.727 0 219.582 0 219.431C0 219.281 0.058891 219.136 0.163719 219.029C0.268547 218.923 0.410726 218.863 0.558975 218.863H299.441C299.514 218.862 299.587 218.877 299.655 218.906C299.723 218.934 299.785 218.976 299.837 219.029C299.889 219.082 299.93 219.144 299.958 219.213C299.986 219.283 300 219.357 300 219.431Z" fill="#CCCCCC"/>
<path d="M232.207 73.936L223.652 72.6894C220.758 77.6113 219.73 90.7117 219.73 90.7117L211.358 110.956C210.803 111.339 210.358 111.864 210.066 112.478C209.774 113.092 209.647 113.773 209.696 114.453C209.746 115.133 209.97 115.788 210.348 116.352C210.725 116.915 211.242 117.368 211.845 117.664C212.449 117.96 213.119 118.089 213.787 118.037C214.456 117.986 215.099 117.757 215.653 117.373C216.206 116.988 216.651 116.462 216.941 115.847C217.231 115.233 217.357 114.551 217.306 113.871L231.053 90.3079L232.207 73.936Z" fill="#FFB8B8"/>
<path d="M230.845 49.7742C232.169 49.9828 233.432 50.4858 234.543 51.2473C235.655 52.0088 236.587 53.0101 237.275 54.1799C237.963 55.3498 238.389 56.6595 238.522 58.0159C238.656 59.3722 238.494 60.7418 238.048 62.0273L236.233 67.2621C236.233 67.2621 235.245 83.0241 231.476 87.4734L219.911 86.4084C219.911 86.4084 222.025 78.4562 220.402 74.6086C219.408 72.2523 219.463 64.1139 220.443 57.4935C220.626 56.2913 221.041 55.1376 221.663 54.0987C222.286 53.0598 223.104 52.1559 224.07 51.4389C225.036 50.7219 226.132 50.2058 227.294 49.9201C228.457 49.6345 229.663 49.5849 230.845 49.7742Z" fill="#E6E6E6"/>
<path d="M259.118 213.324L253.964 213.323L251.513 193.102L259.119 193.102L259.118 213.324Z" fill="#FFB6B6"/>
<path d="M259.299 218.793L243.452 218.792V218.588C243.452 216.924 244.102 215.328 245.259 214.151C246.415 212.975 247.984 212.314 249.62 212.313H249.621L252.515 210.079L257.916 212.314L259.299 212.314L259.299 218.793Z" fill="#2F2E41"/>
<path d="M236.713 188.263L231.953 190.27L222.074 172.547L229.1 169.583L236.713 188.263Z" fill="#FFB6B6"/>
<path d="M238.941 193.243L224.302 199.419L224.225 199.23C223.599 197.693 223.598 195.966 224.223 194.428C224.849 192.89 226.049 191.668 227.56 191.03L227.56 191.03L229.393 187.839L235.223 187.798L236.501 187.259L238.941 193.243Z" fill="#2F2E41"/>
<path d="M265.01 98.2927L228.438 102.18L223.546 118.942L206.604 146.64L225.31 181.603L231.898 175.588L225.574 147.354L244.448 126.626L248.027 125.115L250.868 202.034L261.376 202.21L265.974 117.334C268.184 109.836 267.519 103.645 265.01 98.2927Z" fill="#2F2E41"/>
<path d="M251.601 45.228L245.599 38.3518L236.113 39.424L230.041 48.0698C226.808 48.8258 223.983 50.8133 222.148 53.6235C220.312 56.4337 219.604 59.8528 220.171 63.1773C222.528 76.982 230.536 90.3708 227.892 97.1821C223.878 107.521 223.633 111.738 233.242 110.289C242.851 108.839 275.042 105.497 268.801 99.1481C262.56 92.7989 261.189 82.189 261.189 82.189L260.939 57.9154C261.204 56.4514 261.169 54.9474 260.835 53.4979C260.501 52.0485 259.876 50.685 258.999 49.4933C258.122 48.3016 257.012 47.3074 255.739 46.5734C254.466 45.8393 253.057 45.3813 251.601 45.228L251.601 45.228Z" fill="#E6E6E6"/>
<path d="M239.871 36.5922C245.686 36.5922 250.4 31.7966 250.4 25.8809C250.4 19.9651 245.686 15.1695 239.871 15.1695C234.056 15.1695 229.342 19.9651 229.342 25.8809C229.342 31.7966 234.056 36.5922 239.871 36.5922Z" fill="#FFB8B8"/>
<path d="M252.844 25.2448C252.374 27.4151 251.526 29.4822 250.34 31.3485C250.025 31.9849 249.555 32.5282 248.974 32.9263C248.68 33.1182 248.329 33.1992 247.983 33.1551C247.636 33.111 247.315 32.9447 247.077 32.685L246.821 32.4727C247.323 32.1578 247.772 31.7618 248.149 31.3002C248.336 31.0686 248.465 30.795 248.527 30.5021C248.589 30.2092 248.581 29.9055 248.505 29.6163C248.414 29.3311 248.218 29.0928 247.957 28.9515C247.697 28.8103 247.394 28.777 247.11 28.8588C246.494 29.1049 246.119 30.012 245.474 29.8721C244.952 29.7562 244.843 29.0566 244.843 28.5065C244.862 25.6308 243.496 21.544 242.438 21.6695C241.37 21.7289 240.3 21.5832 239.284 21.24C238.267 20.8963 237.195 20.757 236.125 20.8299C236.05 20.8395 235.974 20.854 235.893 20.8685C235.722 20.3221 235.486 19.7988 235.191 19.31C235.224 19.9001 235.196 20.4921 235.106 21.076C234.255 21.4327 233.376 21.7151 232.478 21.9203C231.501 22.0603 229.352 25.0325 229.253 24.7285C229.081 24.1822 228.846 23.6589 228.551 23.17C228.584 23.7601 228.556 24.3521 228.466 24.936C228.461 24.9601 228.461 24.9794 228.456 25.0036C227.982 24.3618 227.692 23.5802 227.854 24.1785C226.265 20.5211 226.881 17.9011 229.381 14.8179C229.868 14.1549 230.513 13.6286 231.254 13.2883C231.626 13.1223 232.033 13.0565 232.437 13.097C232.841 13.1376 233.227 13.2832 233.559 13.5199C234.579 12.5691 235.83 11.9129 237.183 11.6193C238.535 11.3258 239.94 11.4056 241.253 11.8505C243.856 12.7721 245.863 13.3125 246.261 16.0917C248.414 15.7395 250.629 16.9843 251.815 18.842C252.996 20.7045 253.238 23.0687 252.844 25.2448Z" fill="#2F2E41"/>
<path d="M244.306 114.213H240.811V86.8508H243.653C243.791 86.8508 243.923 86.9063 244.021 87.005C244.118 87.1038 244.174 87.2379 244.174 87.3779L244.306 114.213Z" fill="#3F3D56"/>
<path d="M241.138 114.357H203.61V94.8712H241.138V114.357Z" fill="white"/>
<path d="M226.346 114.285H203.681V94.9436H241.067V99.3096C241.062 103.28 239.51 107.086 236.75 109.894C233.991 112.701 230.249 114.28 226.346 114.285Z" fill="#B4FFD8"/>
<path d="M243.737 87.628C243.718 87.6643 243.703 87.7027 243.693 87.7425L242.399 92.8168L240.996 95.5212H203.752V94.8476L205.873 92.8168L208.346 88.0036C208.456 87.7912 208.599 87.5988 208.771 87.4345C209.162 87.0596 209.68 86.8508 210.218 86.8508H243.277C243.366 86.8508 243.454 86.8744 243.533 86.9193C243.611 86.9642 243.676 87.0289 243.723 87.1071C243.769 87.1853 243.795 87.2744 243.797 87.3657C243.8 87.4569 243.779 87.5473 243.737 87.628Z" fill="#3F3D56"/>
<path d="M241.138 114.357H203.61V94.8712H241.138V114.357ZM203.895 114.068H240.853V95.161H203.895V114.068Z" fill="#3F3D56"/>
<path d="M243.09 90.2236L242.399 92.817H205.873L207.053 90.6585L243.09 90.2236Z" fill="#B4FFD8"/>
<path d="M210.976 105.082H204.994V105.419H210.976V105.082Z" fill="white"/>
<path d="M210.976 106.261H204.994V106.598H210.976V106.261Z" fill="white"/>
<path d="M210.976 107.44H204.994V107.776H210.976V107.44Z" fill="white"/>
<path d="M207.311 101.331C208.5 101.331 209.463 100.351 209.463 99.1416C209.463 97.9326 208.5 96.9525 207.311 96.9525C206.123 96.9525 205.159 97.9326 205.159 99.1416C205.159 100.351 206.123 101.331 207.311 101.331Z" fill="white"/>
<path d="M258.906 71.4343L250.351 70.1877C247.457 75.1095 246.429 88.21 246.429 88.21L238.057 108.454C237.502 108.837 237.057 109.362 236.765 109.976C236.473 110.59 236.346 111.271 236.395 111.951C236.445 112.631 236.67 113.286 237.047 113.85C237.424 114.413 237.941 114.866 238.544 115.162C239.148 115.458 239.818 115.587 240.487 115.536C241.155 115.485 241.798 115.255 242.352 114.871C242.906 114.486 243.35 113.96 243.64 113.346C243.93 112.731 244.056 112.049 244.005 111.37L257.752 87.8061L258.906 71.4343Z" fill="#FFB8B8"/>
<path d="M254.269 47.2725C255.593 47.4812 256.856 47.9841 257.967 48.7456C259.079 49.5071 260.011 50.5084 260.699 51.6782C261.387 52.8481 261.813 54.1578 261.946 55.5141C262.08 56.8705 261.918 58.2401 261.472 59.5256L259.657 64.7604C259.657 64.7604 261.944 80.5224 258.175 84.9717L246.61 83.9067C246.61 83.9067 248.724 75.9545 247.101 72.1069C246.107 69.7506 246.162 61.6123 247.142 54.9918C247.89 49.9366 249.303 46.4901 254.269 47.2725Z" fill="#E6E6E6"/>
<path d="M181.625 21.1929C177.445 23.3136 174.265 27.0365 172.783 31.5428C171.302 36.049 171.64 40.9694 173.725 45.2216C178.066 54.0762 193.752 69.1778 206.268 71.4595C200.884 54.8301 208.37 37.9271 205.245 29.2297C201.906 19.9362 190.329 16.7769 181.625 21.1929Z" fill="#B4FFD8"/>
<path d="M187.492 42.2522C190.664 42.2522 193.236 39.6361 193.236 36.4091C193.236 33.1821 190.664 30.5661 187.492 30.5661C184.32 30.5661 181.748 33.1821 181.748 36.4091C181.748 39.6361 184.32 42.2522 187.492 42.2522Z" fill="white"/>
<path d="M206.157 80.8379C208.235 80.8379 209.919 79.1245 209.919 77.0109C209.919 74.8973 208.235 73.1838 206.157 73.1838C204.08 73.1838 202.395 74.8973 202.395 77.0109C202.395 79.1245 204.08 80.8379 206.157 80.8379Z" fill="#B4FFD8"/>
<path opacity="0.2" d="M189.243 30.267C189.997 30.2404 190.749 30.3652 191.455 30.6343C192.162 30.9035 192.81 31.3117 193.362 31.8356C193.913 32.3595 194.358 32.9889 194.67 33.6877C194.983 34.3866 195.157 35.1412 195.182 35.9085C195.208 36.6758 195.084 37.4406 194.819 38.1594C194.554 38.8782 194.152 39.5367 193.637 40.0974C193.121 40.6581 192.502 41.11 191.815 41.4272C191.128 41.7444 190.386 41.9207 189.632 41.9461C190.91 41.4625 191.977 40.5318 192.643 39.3208C193.308 38.1097 193.528 36.6973 193.263 35.3363C192.998 33.9753 192.266 32.7546 191.198 31.8926C190.129 31.0306 188.794 30.5837 187.431 30.6318C188.011 30.4115 188.623 30.2884 189.243 30.267Z" fill="#231F20"/>
<path opacity="0.2" d="M205.274 29.2331C208.399 37.9305 200.913 54.8335 206.297 71.4629C205.115 71.2416 203.952 70.9318 202.815 70.5359C198.429 54.4604 205.313 38.3972 202.294 29.994C199.592 22.4729 191.495 18.9702 183.891 20.248C192.236 17.3526 202.214 20.7165 205.274 29.2331Z" fill="#231F20"/>
<path d="M28.9634 109.926C24.6367 109.821 20.4459 111.468 17.313 114.506C14.1801 117.543 12.3616 121.723 12.2578 126.124C12.0414 135.29 18.4565 154.574 27.7352 161.96C30.4093 145.967 43.7402 135.422 44.8856 126.921C46.1095 117.838 37.9733 110.147 28.9634 109.926Z" fill="#D1D3D4"/>
<path d="M27.2873 130.39C30.2265 130.39 32.6093 127.966 32.6093 124.975C32.6093 121.985 30.2265 119.561 27.2873 119.561C24.348 119.561 21.9652 121.985 21.9652 124.975C21.9652 127.966 24.348 130.39 27.2873 130.39Z" fill="white"/>
<path d="M25.2803 170.004C27.2054 170.004 28.7661 168.417 28.7661 166.458C28.7661 164.5 27.2054 162.912 25.2803 162.912C23.3551 162.912 21.7944 164.5 21.7944 166.458C21.7944 168.417 23.3551 170.004 25.2803 170.004Z" fill="#D1D3D4"/>
<path opacity="0.2" d="M31.3373 120.716C32.6065 121.345 33.5785 122.46 34.0394 123.817C34.5003 125.174 34.4124 126.662 33.7949 127.953C33.4892 128.593 33.0627 129.165 32.5397 129.636C32.0168 130.108 31.4076 130.47 30.747 130.702C29.413 131.171 27.9504 131.082 26.6812 130.454C27.9341 130.621 29.2047 130.329 30.2655 129.631C31.3263 128.932 32.1082 127.872 32.4711 126.641C32.834 125.409 32.7542 124.087 32.2461 122.91C31.738 121.733 30.8347 120.778 29.6979 120.217C30.2673 120.292 30.8209 120.461 31.3373 120.716Z" fill="#231F20"/>
<path opacity="0.2" d="M44.9079 126.937C43.7625 135.438 30.4316 145.982 27.7576 161.976C26.8843 161.274 26.0632 160.507 25.3011 159.682C28.556 144.581 41.0368 134.46 42.1435 126.247C43.134 118.895 37.9939 112.457 31.2218 110.151C39.2903 111.459 46.0295 118.613 44.9079 126.937Z" fill="#231F20"/>
<path d="M90.874 39.3824C89.6579 39.4634 88.521 40.0238 87.7049 40.9446C86.8889 41.8653 86.4583 43.0736 86.5046 44.3125C86.518 44.5641 86.5517 44.8142 86.6056 45.0602L72.7968 53.9103L80.431 57.3452L92.3737 48.4144C93.3591 48.1081 94.2171 47.4786 94.8138 46.6241C95.4105 45.7697 95.7124 44.7383 95.6723 43.6909C95.6438 43.0951 95.5003 42.5109 95.2499 41.9716C94.9996 41.4323 94.6472 40.9484 94.213 40.5476C93.7788 40.1468 93.2713 39.8369 92.7194 39.6357C92.1674 39.4344 91.582 39.3457 90.9964 39.3747C90.9555 39.3767 90.9147 39.3793 90.874 39.3824Z" fill="#FFB6B6"/>
<path d="M77.558 49.8878L80.9804 57.0713L67.4487 65.9298C66.4859 66.5655 65.3792 66.9402 64.2339 67.0183C63.0886 67.0963 61.9428 66.8751 60.9052 66.3757C59.6437 65.7615 58.6127 64.7467 57.9675 63.4844C57.3223 62.2222 57.0979 60.7807 57.3281 59.3774L61.7189 33.8766C62.0137 32.0921 62.9694 30.4903 64.3896 29.4007C65.8097 28.3111 67.5863 27.8166 69.3539 28.0187C70.2149 28.1145 71.0489 28.3819 71.8083 28.8055C72.5677 29.2292 73.2376 29.8009 73.7799 30.4879C74.3221 31.175 74.726 31.9639 74.9685 32.8098C75.211 33.6556 75.2873 34.5418 75.1932 35.4177C75.1857 35.4869 75.1772 35.5559 75.1677 35.6249C75.1345 35.8699 75.0884 36.113 75.0294 36.3529L70.2361 54.4886L77.558 49.8878Z" fill="#B4FFD8"/>
<path d="M78.5197 61.024H59.1678V80.7108H78.5197V61.024Z" fill="#FFB8B8"/>
<path d="M124.413 119.003L131.803 116.474L135.919 136.939L130.911 138.653L124.413 119.003Z" fill="#FFB6B6"/>
<path d="M111.886 117.43L119.217 114.727L123.8 135.089L118.833 136.921L111.886 117.43Z" fill="#FFB6B6"/>
<path d="M59.862 85.854C55.9833 112.16 107.635 96.6073 107.635 96.6073L123.83 119.335L133.311 117.581C133.311 117.581 129.045 103.937 121.426 85.6466C118.043 77.5239 79.6223 79.5086 79.6223 79.5086L78.8246 73.1396L56.8452 72.7011L59.862 85.854Z" fill="#2F2E41"/>
<path d="M97.1726 98.3707L109.117 90.8033C117.86 108.566 120.438 116.258 120.438 116.258L112.171 118.623L97.1726 98.3707Z" fill="#2F2E41"/>
<path d="M70.9172 29.0329L67.022 23.9394L61.4657 23.6943L60.9111 28.4848L58.158 29.7763C55.409 40.4009 54.9844 51.5096 56.9143 62.3193C57.2832 62.6727 57.5528 63.1199 57.6953 63.6147C57.8377 64.1094 57.8478 64.6339 57.7245 65.134L57.546 65.8579L57.5625 65.8844C58.1483 66.8248 58.3471 67.9618 58.1159 69.05L56.8011 71.4267C56.3293 72.2814 56.0461 73.2304 55.9713 74.2077C55.8965 75.185 56.0319 76.1672 56.3679 77.0859C56.704 78.0046 57.2328 78.8378 57.9175 79.5275C58.6021 80.2173 59.4263 80.747 60.3326 81.08C68.4145 84.0601 75.9905 85.1702 81.5953 76.8075L83.3577 47.6651L70.9172 29.0329Z" fill="#B4FFD8"/>
<path d="M66.8367 25.292C72.5105 25.292 77.11 20.6129 77.11 14.8409C77.11 9.06887 72.5105 4.38974 66.8367 4.38974C61.1629 4.38974 56.5634 9.06887 56.5634 14.8409C56.5634 20.6129 61.1629 25.292 66.8367 25.292Z" fill="#FFB8B8"/>
<path d="M61.6794 2.24217C57.3295 2.32719 53.8795 6.43184 53.9735 11.4102C50.7545 14.8271 49.9747 31.6338 52.6644 36.1049C57.5846 36.6859 60.5774 24.3024 64.8923 26.0926L65.4608 23.39L66.7493 26.9094C67.8458 27.4237 68.9341 27.9882 70.0141 28.6029C70.7903 24.9813 70.5978 21.461 68.5118 18.3947C66.6585 15.6706 71.1685 12.4367 74.3939 12.8937L74.3466 10.3918L75.1567 12.8788C76.414 13.8187 77.8048 13.4784 79.2309 12.7992C81.5435 0.571723 63.6385 -2.7721 61.6794 2.24217Z" fill="#2F2E41"/>
<path d="M128.635 142.115L131.927 141.677L132.109 138.436L134.02 141.399L142.754 140.238C143.172 140.183 143.562 139.992 143.867 139.695C144.172 139.398 144.375 139.01 144.448 138.586C144.52 138.163 144.458 137.728 144.27 137.343C144.081 136.959 143.777 136.646 143.402 136.449L135.798 132.476L135.388 129.279L128.109 130.699L128.635 142.115Z" fill="#2F2E41"/>
<path d="M119.938 142.144L122.925 140.668L122.089 137.536L124.824 139.73L132.746 135.816C133.126 135.629 133.437 135.323 133.634 134.943C133.83 134.563 133.902 134.128 133.839 133.704C133.776 133.279 133.582 132.886 133.283 132.582C132.985 132.278 132.599 132.079 132.182 132.014L123.733 130.694L122.349 127.793L115.887 131.485L119.938 142.144Z" fill="#2F2E41"/>
<path d="M74.8428 72.4508H78.5057V43.771H75.5267C75.3824 43.771 75.244 43.8291 75.1417 43.9327C75.0395 44.0362 74.9816 44.1767 74.9809 44.3235L74.8428 72.4508Z" fill="#CCCCCC"/>
<path d="M78.1633 52.1777H117.499V72.6026H78.1633V52.1777Z" fill="white"/>
<path d="M78.238 56.83V52.2537H117.425V72.5267H93.6677C89.5769 72.522 85.655 70.8667 82.7624 67.924C79.8698 64.9813 78.2427 60.9916 78.238 56.83Z" fill="#F2F2F2"/>
<path d="M75.4393 44.5857C75.4591 44.6237 75.4744 44.664 75.485 44.7056L76.8414 50.0244L78.3127 52.859H117.35V52.1531L115.127 50.0244L112.535 44.9794C112.42 44.7567 112.27 44.555 112.09 44.3828C111.68 43.9898 111.137 43.771 110.573 43.771H75.9219C75.8278 43.771 75.7354 43.7958 75.6535 43.8428C75.5715 43.8899 75.503 43.9577 75.4544 44.0397C75.4059 44.1217 75.379 44.215 75.3763 44.3107C75.3737 44.4063 75.3954 44.501 75.4393 44.5857Z" fill="#F2F2F2"/>
<path d="M78.1633 52.1777H117.499V72.6026H78.1633V52.1777ZM117.201 72.2988H78.4619V52.4815H117.201L117.201 72.2988Z" fill="#E6E6E6"/>
<path d="M76.1168 47.3064L76.8416 50.0244H115.128L113.89 47.7622L76.1168 47.3064Z" fill="#CCCCCC"/>
<path d="M116.049 62.8806H109.778V63.2336H116.049V62.8806Z" fill="white"/>
<path d="M116.049 64.1161H109.778V64.4691H116.049V64.1161Z" fill="white"/>
<path d="M116.049 65.3517H109.778V65.7047H116.049V65.3517Z" fill="white"/>
<path d="M113.62 58.9484C114.865 58.9484 115.875 57.9211 115.875 56.6538C115.875 55.3866 114.865 54.3593 113.62 54.3593C112.374 54.3593 111.364 55.3866 111.364 56.6538C111.364 57.9211 112.374 58.9484 113.62 58.9484Z" fill="white"/>
<path d="M95.4249 21.9839C98.076 21.9192 100.644 22.9285 102.564 24.7898C104.483 26.6511 105.597 29.212 105.661 31.909C105.794 37.5254 101.863 49.3414 96.1773 53.8672C94.5388 44.0673 86.3704 37.6063 85.6686 32.3974C84.9187 26.8315 89.9041 22.1188 95.4249 21.9839Z" fill="#D1D3D4"/>
<path d="M96.452 34.5226C98.253 34.5226 99.713 33.0373 99.713 31.2051C99.713 29.3729 98.253 27.8876 96.452 27.8876C94.6509 27.8876 93.1909 29.3729 93.1909 31.2051C93.1909 33.0373 94.6509 34.5226 96.452 34.5226Z" fill="white"/>
<path d="M97.6817 58.7963C98.8613 58.7963 99.8176 57.8234 99.8176 56.6234C99.8176 55.4233 98.8613 54.4505 97.6817 54.4505C96.5021 54.4505 95.5458 55.4233 95.5458 56.6234C95.5458 57.8234 96.5021 58.7963 97.6817 58.7963Z" fill="#D1D3D4"/>
<path opacity="0.2" d="M93.9703 28.5955C93.5852 28.786 93.2408 29.0519 92.9567 29.3779C92.6726 29.7039 92.4545 30.0836 92.3146 30.4954C92.1748 30.9072 92.116 31.3429 92.1417 31.7778C92.1674 32.2126 92.2771 32.6381 92.4644 33.0299C92.6518 33.4216 92.9131 33.772 93.2335 34.061C93.554 34.35 93.9272 34.572 94.332 34.7142C94.7368 34.8565 95.1651 34.9163 95.5926 34.8901C96.02 34.864 96.4383 34.7524 96.8233 34.5618C96.0556 34.6644 95.2771 34.4857 94.6271 34.0576C93.977 33.6295 93.498 32.9801 93.2756 32.2256C93.0533 31.471 93.1021 30.6606 93.4135 29.9394C93.7248 29.2181 94.2783 28.6332 94.9748 28.2891C94.6259 28.3354 94.2867 28.4389 93.9703 28.5955Z" fill="#231F20"/>
<path opacity="0.2" d="M85.655 32.4069C86.3569 37.6158 94.5253 44.0768 96.1638 53.8767C96.6989 53.4465 97.202 52.9767 97.669 52.4711C95.6746 43.2186 88.027 37.0167 87.3489 31.9839C86.742 27.4795 89.8916 23.5344 94.0411 22.1218C89.0972 22.9229 84.9678 27.3063 85.655 32.4069Z" fill="#231F20"/>
<path d="M89.6156 49.5708C88.4003 49.4792 87.1978 49.8737 86.2641 50.6703C85.3303 51.4669 84.7389 52.6027 84.6158 53.836C84.5946 54.0872 84.594 54.3396 84.6138 54.5908L69.731 61.4051L76.8226 65.8849L89.8683 58.7271C90.886 58.563 91.8215 58.0607 92.5291 57.2988C93.2366 56.5368 93.6763 55.558 93.7795 54.5152C93.8868 53.3155 93.5213 52.1217 92.7633 51.1962C92.0053 50.2708 90.917 49.6895 89.7378 49.5804C89.6971 49.5766 89.6564 49.5734 89.6156 49.5708Z" fill="#FFB6B6"/>
<path d="M74.9949 58.094L77.4039 65.6912L62.7945 72.553C61.7542 73.0466 60.6071 73.2614 59.4623 73.1769C58.3174 73.0925 57.2128 72.7116 56.2535 72.0705C55.088 71.2841 54.2054 70.1336 53.7387 68.7924C53.272 67.4512 53.2465 65.992 53.666 64.6348L61.494 40.0009C62.0294 38.2753 63.1945 36.824 64.7495 35.9455C66.3046 35.0671 68.1315 34.8282 69.8544 35.278C70.694 35.4945 71.4834 35.877 72.1776 36.4038C72.8719 36.9306 73.4573 37.5914 73.9005 38.3483C74.3438 39.1053 74.6361 39.9437 74.7608 40.8156C74.8856 41.6875 74.8403 42.5758 74.6275 43.4299C74.6107 43.4974 74.5929 43.5646 74.574 43.6315C74.5077 43.8695 74.4288 44.1037 74.3377 44.333L67.1161 61.6162L74.9949 58.094Z" fill="#B4FFD8"/>
</g>
<defs>
<clipPath id="clip0_5_191">
<rect width="300" height="220" fill="white"/>
</clipPath>
</defs>
</svg>
