<svg width="300" height="220" viewBox="0 0 300 220" fill="none" xmlns="http://www.w3.org/2000/svg">
<g clip-path="url(#clip0_5_192)">
<path d="M50.593 195.204C40.7372 199.661 36.5063 209.12 36.5063 209.12C36.5063 209.12 48.2548 211.353 58.1106 206.897C67.9663 202.44 72.1972 192.981 72.1972 192.981C72.1972 192.981 60.4487 190.748 50.593 195.204Z" fill="#F2F2F2"/>
<path d="M53.8355 198.268C48.0631 206.314 36.5973 209.413 36.5973 209.413C36.5973 209.413 34.4907 199.466 40.2631 191.42C46.0356 183.373 57.5013 180.274 57.5013 180.274C57.5013 180.274 59.608 190.221 53.8355 198.268Z" fill="#F2F2F2"/>
<path d="M236.248 15.4836H201.278V32.8482H236.248V15.4836Z" fill="#2F2E41"/>
<path d="M166.634 18.2835H148.605V13.0108C148.605 11.0058 149.554 9.0828 151.245 7.66498C152.936 6.24717 155.229 5.45065 157.619 5.45065C160.01 5.45065 162.303 6.24717 163.994 7.66498C165.685 9.0828 166.634 11.0058 166.634 13.0108V18.2835ZM149.004 17.9487H166.235V13.0108C166.235 11.0945 165.327 9.25673 163.712 7.90169C162.096 6.54666 159.904 5.78542 157.619 5.78542C155.334 5.78542 153.143 6.54666 151.527 7.90169C149.912 9.25673 149.004 11.0945 149.004 13.0108V17.9487Z" fill="#3F3D56"/>
<path d="M175.549 17.5583V15.4977L129.698 16.528L128.247 68.7221L135.033 75.7521L175.549 17.5583Z" fill="#3F3D56"/>
<path d="M183.666 16.8329L133.968 17.7813L135.033 75.7521L182.993 71.4167L183.666 16.8329Z" fill="#B4FFD8"/>
<path d="M225.919 204.653H220.278L217.594 186.406H225.92L225.919 204.653Z" fill="#FFB6B6"/>
<path d="M227.357 209.239L209.168 209.239V209.046C209.168 207.471 209.914 205.961 211.242 204.848C212.57 203.734 214.37 203.109 216.248 203.109H216.248L227.358 203.109L227.357 209.239Z" fill="#2F2E41"/>
<path d="M205.213 204.653H199.572L196.889 186.406H205.214L205.213 204.653Z" fill="#FFB6B6"/>
<path d="M206.652 209.239L188.463 209.239V209.046C188.463 207.471 189.209 205.961 190.537 204.848C191.864 203.734 193.665 203.109 195.543 203.109H195.543L206.652 203.109L206.652 209.239Z" fill="#2F2E41"/>
<path d="M188.647 90.3959C188.647 90.3959 180.405 105.281 187.851 135.243C195.297 165.205 195.358 198.098 195.358 198.098L206.743 198.254L213.139 127.437L216.488 197.254H227.705L237.59 128.541C237.59 128.541 244.095 97.8583 229.589 92.3648L188.647 90.3959Z" fill="#2F2E41"/>
<path d="M228.098 37.8646L203.169 35.9374C195.352 40.716 190.965 49.2986 191.865 58.1539C193.086 70.1604 192.673 86.6836 182.873 93.8619C182.873 93.8619 209.583 111.541 233.31 94.7687C233.31 94.7687 225.197 76.5406 230.767 69.2613C236.337 61.9821 238.347 41.5304 228.098 37.8646Z" fill="#E4E4E4"/>
<path d="M153.923 8.19678C153.847 8.79941 153.929 9.40877 154.164 9.98193C154.399 10.5551 154.78 11.0781 155.282 11.5142C155.784 11.9502 156.394 12.2887 157.068 12.5057C157.743 12.7228 158.466 12.8131 159.187 12.7704L192.101 38.5308L198 30.9947L163.792 8.0427C163.626 7.0319 163.024 6.10724 162.099 5.44392C161.175 4.78061 159.993 4.42472 158.776 4.44372C157.56 4.46271 156.394 4.85525 155.499 5.54697C154.605 6.23868 154.044 7.1815 153.923 8.19678Z" fill="#FFB6B6"/>
<path d="M185.955 34.5514L193.763 27.8248C193.985 27.6334 194.254 27.4844 194.551 27.388C194.848 27.2916 195.166 27.2499 195.484 27.266C195.802 27.282 196.112 27.3553 196.393 27.4809C196.674 27.6065 196.92 27.7815 197.113 27.9938L203.882 35.4346C205.043 36.3934 205.704 37.6992 205.719 39.0657C205.733 40.4322 205.101 41.7478 203.961 42.7242C202.821 43.7006 201.266 44.258 199.637 44.2743C198.008 44.2905 196.437 43.7643 195.27 42.811L186.246 37.3553C185.988 37.199 185.773 36.9979 185.616 36.7656C185.458 36.5334 185.363 36.2754 185.335 36.0093C185.307 35.7432 185.348 35.4752 185.455 35.2236C185.562 34.9721 185.733 34.7428 185.955 34.5514V34.5514Z" fill="#E4E4E4"/>
<path d="M276.204 70.9294C276.241 70.3241 276.119 69.7195 275.846 69.1582C275.574 68.5968 275.158 68.0924 274.628 67.6804C274.098 67.2684 273.467 66.9589 272.779 66.7736C272.091 66.5883 271.363 66.5318 270.646 66.6081L236.076 42.421L230.685 50.2203L266.361 71.543C266.594 72.5445 267.256 73.4397 268.223 74.0589C269.19 74.6781 270.395 74.9784 271.608 74.9027C272.821 74.8271 273.959 74.3808 274.806 73.6485C275.654 72.9162 276.151 71.9487 276.204 70.9294Z" fill="#FFB6B6"/>
<path d="M242.477 46.1079L235.126 53.1879C234.917 53.3894 234.658 53.5507 234.368 53.6608C234.078 53.7709 233.763 53.8273 233.445 53.8261C233.126 53.8249 232.812 53.7661 232.523 53.6538C232.234 53.5415 231.977 53.3783 231.77 53.1753L224.518 46.0614C223.295 45.1582 222.549 43.8851 222.444 42.5214C222.339 41.1576 222.882 39.8144 223.956 38.7864C225.03 37.7583 226.546 37.1293 228.171 37.0372C229.797 36.9451 231.4 37.3974 232.629 38.2951L242 43.3219C242.268 43.4659 242.496 43.6567 242.669 43.8813C242.841 44.1059 242.954 44.359 242.999 44.6234C243.044 44.8878 243.021 45.1572 242.931 45.4134C242.841 45.6696 242.686 45.9065 242.477 46.1079Z" fill="#E4E4E4"/>
<path d="M279.717 81.1567H266.06V77.1628C266.06 75.644 266.779 74.1874 268.06 73.1135C269.341 72.0395 271.077 71.4362 272.888 71.4362C274.699 71.4362 276.436 72.0395 277.717 73.1135C278.997 74.1874 279.717 75.644 279.717 77.1628L279.717 81.1567ZM266.362 80.9031H279.414V77.1628C279.414 75.7113 278.727 74.3192 277.503 73.2928C276.279 72.2664 274.619 71.6897 272.888 71.6897C271.158 71.6897 269.498 72.2664 268.274 73.2928C267.05 74.3192 266.362 75.7113 266.362 77.1628V80.9031Z" fill="#3F3D56"/>
<path d="M286.47 80.6073V79.0464L251.739 79.827L250.639 119.362L255.779 124.688L286.47 80.6073Z" fill="#3F3D56"/>
<path d="M292.618 80.0578L254.973 80.7763L255.78 124.688L292.109 121.404L292.618 80.0578Z" fill="#B4FFD8"/>
<path d="M217.383 32.4623C225.514 32.4623 232.107 26.9338 232.107 20.1141C232.107 13.2944 225.514 7.76593 217.383 7.76593C209.251 7.76593 202.659 13.2944 202.659 20.1141C202.659 26.9338 209.251 32.4623 217.383 32.4623Z" fill="#FFB6B6"/>
<path d="M214 17C219.5 18 220 19 227 16C228.555 20.4967 229.23 23.9331 228 28.5C226.77 33.0669 226.836 38.1112 223.128 41.6109C226.244 42.555 229.831 41.9339 232.615 40.429C235.4 38.9241 237.463 36.6265 239.019 34.1737C242.872 28.1021 243.837 20.6883 241.111 14.2014C238.385 7.71443 231.855 2.33542 223.921 0.593655C215.987 -1.14811 206.89 1.0034 201.59 6.25167C196.047 11.7397 195.149 19.7811 197.578 26.6788C200.007 33.5764 209.647 40.2437 215.5 45.5C212.688 39.4369 209.5 35.5 207.5 26.5C207.202 24.2861 206.754 21.1383 207.5 19C208.246 16.8617 208.942 15.1008 211.5 14.5" fill="#2F2E41"/>
<path d="M299.54 209.967H124.233C124.111 209.967 123.994 209.926 123.908 209.854C123.821 209.782 123.773 209.684 123.773 209.581C123.773 209.479 123.821 209.381 123.908 209.308C123.994 209.236 124.111 209.195 124.233 209.195H299.54C299.662 209.195 299.779 209.236 299.865 209.308C299.951 209.381 300 209.479 300 209.581C300 209.684 299.951 209.782 299.865 209.854C299.779 209.926 299.662 209.967 299.54 209.967Z" fill="#CACACA"/>
<path d="M75 209.967H0.460123C0.338091 209.967 0.221063 209.926 0.134773 209.854C0.0484837 209.782 0 209.684 0 209.581C0 209.479 0.0484837 209.381 0.134773 209.308C0.221063 209.236 0.338091 209.195 0.460123 209.195H75C75.122 209.195 75.2391 209.236 75.3253 209.308C75.4116 209.381 75.4601 209.479 75.4601 209.581C75.4601 209.684 75.4116 209.782 75.3253 209.854C75.2391 209.926 75.122 209.967 75 209.967Z" fill="#CACACA"/>
<path d="M272.355 176.469H258.698V172.475C258.698 170.956 259.417 169.5 260.698 168.426C261.979 167.352 263.715 166.749 265.526 166.749C267.337 166.749 269.074 167.352 270.355 168.426C271.635 169.5 272.355 170.956 272.355 172.475L272.355 176.469ZM259 176.215H272.052V172.475C272.052 171.024 271.365 169.632 270.141 168.605C268.917 167.579 267.257 167.002 265.526 167.002C263.796 167.002 262.136 167.579 260.912 168.605C259.688 169.632 259 171.024 259 172.475V176.215Z" fill="#CACACA"/>
<path d="M279.108 175.92V174.359L244.377 175.139L243.277 214.675L248.417 220L279.108 175.92Z" fill="#CACACA"/>
<path d="M285.256 175.37L247.611 176.089L248.417 220L284.746 216.716L285.256 175.37Z" fill="#E4E4E4"/>
</g>
<defs>
<clipPath id="clip0_5_192">
<rect width="300" height="220" fill="white"/>
</clipPath>
</defs>
</svg>
